<svg width="17" height="16" viewBox="0 0 17 16" fill="none" xmlns="http://www.w3.org/2000/svg">
<path fill-rule="evenodd" clip-rule="evenodd" d="M15.9092 2.75685C16.1465 3.38554 16.2725 4.05067 16.2815 4.72248C16.331 5.56743 16.3312 5.84378 16.333 7.98255L16.333 8.01242C16.333 10.1794 16.3215 10.4499 16.2833 11.3033C16.2699 11.9676 16.1446 12.6222 15.911 13.2432C15.7049 13.7733 15.3905 14.2548 14.9877 14.6569C14.5849 15.059 14.1026 15.373 13.5716 15.5787C12.9499 15.8116 12.2932 15.9373 11.6293 15.9503C10.7808 16 10.5027 16 8.33301 16C6.16331 16 5.89232 15.9885 5.0367 15.9503C4.37154 15.9285 3.715 15.7935 3.09534 15.5512C2.56407 15.3459 2.08154 15.0322 1.67858 14.6302C1.27561 14.2283 0.961064 13.7468 0.755042 13.2165C0.521368 12.5947 0.396091 11.9401 0.382763 11.2766C0.333008 10.4287 0.333008 10.1519 0.333008 7.98581C0.333008 5.81972 0.344558 5.54917 0.382763 4.69498C0.395312 4.03247 0.521218 3.37699 0.755042 2.75685C0.960719 2.22646 1.27503 1.74478 1.67786 1.34262C2.08069 0.940454 2.56318 0.626668 3.09445 0.421333C3.71581 0.188463 4.37224 0.0624939 5.03581 0.048786C5.88432 0 6.16242 0 8.33212 0C10.5018 0 10.7728 0.0106443 11.6275 0.048786C12.2914 0.0623939 12.9481 0.188364 13.5698 0.421333C14.101 0.626811 14.5834 0.940648 14.9862 1.34279C15.389 1.74494 15.7034 2.22655 15.9092 2.75685ZM4.21928 7.98137C4.21928 10.2468 6.05758 12.0821 8.32679 12.0821C9.41617 12.0821 10.4609 11.65 11.2312 10.881C12.0015 10.112 12.4343 9.06894 12.4343 7.98137C12.4343 6.89381 12.0015 5.85078 11.2312 5.08176C10.4609 4.31273 9.41617 3.8807 8.32679 3.8807C6.05758 3.8807 4.21928 5.71593 4.21928 7.98137ZM11.64 3.72902C11.64 4.25768 12.0673 4.68522 12.5978 4.68522C13.1264 4.68522 13.5547 4.25768 13.5547 3.72902C13.5547 3.6035 13.5299 3.47922 13.4818 3.36326C13.4337 3.24731 13.3632 3.14194 13.2743 3.05319C13.1854 2.96444 13.0798 2.89404 12.9637 2.84601C12.8475 2.79798 12.7231 2.77326 12.5973 2.77326C12.4716 2.77326 12.3471 2.79798 12.231 2.84601C12.1148 2.89404 12.0093 2.96444 11.9204 3.05319C11.8315 3.14194 11.761 3.24731 11.7129 3.36326C11.6647 3.47922 11.64 3.6035 11.64 3.72902ZM11.33 7.97895C11.33 9.63746 9.98555 10.982 8.32704 10.982C6.66852 10.982 5.32404 9.63746 5.32404 7.97895C5.32404 6.32044 6.66852 4.97595 8.32704 4.97595C9.98555 4.97595 11.33 6.32044 11.33 7.97895Z" fill="white"/>
</svg>
