<svg width="15" height="15" viewBox="0 0 15 15" fill="none" xmlns="http://www.w3.org/2000/svg">
<path fill-rule="evenodd" clip-rule="evenodd" d="M14.9997 14.9999H11.9863V9.86725C11.9863 8.45992 11.4513 7.67359 10.3377 7.67359C9.12601 7.67359 8.49267 8.49192 8.49267 9.86692V14.9999H5.58867V5.22225H8.49267V6.53892C8.49267 6.53892 9.36601 4.92325 11.441 4.92325C13.515 4.92325 14.9997 6.18992 14.9997 8.80925V14.9999ZM2.12401 3.94192C1.13467 3.94192 0.333008 3.13392 0.333008 2.13759C0.333008 1.14092 1.13467 0.333252 2.12401 0.333252C3.11301 0.333252 3.91401 1.14125 3.91401 2.13759C3.91401 3.13392 3.11301 3.94192 2.12401 3.94192ZM0.624008 14.9999H3.65267V5.22225H0.624341V14.9999H0.624008Z" fill="white"/>
</svg>
