<svg width="18" height="18" viewBox="0 0 18 18" fill="none" xmlns="http://www.w3.org/2000/svg">
<path fill-rule="evenodd" clip-rule="evenodd" d="M2.09333 9C2.09333 7.55902 2.51069 6.1504 3.29262 4.95227C4.07455 3.75414 5.18594 2.82031 6.48624 2.26888C7.78655 1.71744 9.21737 1.57316 10.5978 1.85428C11.9782 2.1354 13.2461 2.8293 14.2413 3.84822C15.2366 4.86715 15.9143 6.16533 16.1889 7.57862C16.4635 8.99191 16.3225 10.4568 15.7839 11.7881C15.2453 13.1194 14.3332 14.2573 13.163 15.0578C11.9927 15.8584 10.6169 16.2857 9.20947 16.2857C7.86314 16.2882 6.54404 15.8975 5.40694 15.1594C5.30579 15.0939 5.1921 15.0514 5.07354 15.0347C4.95497 15.018 4.83428 15.0275 4.71961 15.0626L2.30849 15.7988L3.21684 13.6243C3.26964 13.4977 3.29188 13.3599 3.28168 13.2227C3.27148 13.0854 3.22914 12.9527 3.15824 12.8357C2.45996 11.6842 2.09103 10.3554 2.09333 9ZM9.20947 0C4.35459 0 0.418946 4.02943 0.418946 9C0.418946 10.5754 0.814938 12.0583 1.51148 13.3483L0.0673247 16.806C0.00481964 16.9558 -0.0147083 17.1207 0.0110279 17.2814C0.0367641 17.4422 0.106699 17.5921 0.212642 17.7136C0.318585 17.8351 0.456151 17.9232 0.609228 17.9675C0.762305 18.0119 0.924556 18.0106 1.07698 17.964L4.84435 16.8137C6.17299 17.5932 7.67813 18.0023 9.20947 18C14.0644 18 18 13.9706 18 9C18 4.02943 14.0644 0 9.20947 0ZM11.1292 10.8703L10.0282 11.664C9.42168 11.3067 8.86471 10.8676 8.37228 10.3586C7.84362 9.81805 7.38652 9.20885 7.01268 8.54657L7.71173 7.93885C7.8574 7.81232 7.95642 7.6386 7.99235 7.44651C8.02829 7.25443 7.99899 7.05554 7.90931 6.88285L7.01854 5.16857C6.95926 5.05472 6.87565 4.95604 6.77393 4.87988C6.67221 4.80373 6.55501 4.75207 6.43107 4.72875C6.30714 4.70543 6.17966 4.71106 6.05814 4.74521C5.93662 4.77937 5.8242 4.84116 5.72926 4.926L5.46471 5.16171C4.82928 5.72914 4.45338 6.66171 4.76481 7.60628C5.26588 9.10038 6.09504 10.4569 7.18849 11.5714C8.70632 13.1254 10.2484 13.7374 11.1509 13.9757C11.8776 14.1669 12.5649 13.9106 13.0497 13.506L13.5445 13.0928C13.6488 13.0058 13.731 12.8942 13.7843 12.7676C13.8375 12.6411 13.8602 12.5032 13.8503 12.3658C13.8405 12.2284 13.7984 12.0954 13.7277 11.9781C13.6569 11.8609 13.5596 11.7628 13.444 11.6923L12.0392 10.8351C11.9003 10.7503 11.7403 10.7084 11.5787 10.7147C11.417 10.7209 11.2606 10.775 11.1283 10.8703H11.1292Z" fill="#FFB400"/>
</svg>
