<svg width="17" height="16" viewBox="0 0 17 16" fill="none" xmlns="http://www.w3.org/2000/svg">
<path d="M9.66884 7.86083L7.79717 6.9875C7.63384 6.91167 7.49967 6.99667 7.49967 7.1775V8.8225C7.49967 9.00333 7.63384 9.08833 7.79717 9.0125L9.66801 8.13917C9.83217 8.0625 9.83217 7.9375 9.66884 7.86083ZM8.33301 0C3.91467 0 0.333008 3.58167 0.333008 8C0.333008 12.4183 3.91467 16 8.33301 16C12.7513 16 16.333 12.4183 16.333 8C16.333 3.58167 12.7513 0 8.33301 0ZM8.33301 11.25C4.23801 11.25 4.16634 10.8808 4.16634 8C4.16634 5.11917 4.23801 4.75 8.33301 4.75C12.428 4.75 12.4997 5.11917 12.4997 8C12.4997 10.8808 12.428 11.25 8.33301 11.25Z" fill="white"/>
</svg>
